<mxfile host="drawio-plugin" modified="2022-06-14T08:39:19.558Z" agent="5.0 (X11; Linux x86_64) AppleWebKit/537.36 (KHTML, like Gecko) Chrome/97.0.4692.45 Safari/537.36" etag="MD8D9uhkiAQRg6E6sg7d" version="15.5.4" type="embed" pages="3"><diagram id="O3EZs3_6Dj8xObz-TM3K" name="MongoDB"><mxGraphModel dx="998" dy="524" grid="1" gridSize="10" guides="1" tooltips="1" connect="1" arrows="1" fold="1" page="1" pageScale="1" pageWidth="850" pageHeight="1100" math="0" shadow="0"><root><mxCell id="lrR3IPl-trmDoHFo-gHP-0"/><mxCell id="lrR3IPl-trmDoHFo-gHP-1" parent="lrR3IPl-trmDoHFo-gHP-0"/></root></mxGraphModel></diagram><diagram id="Nsd-eYcVat2O6jbiddUB" name="PostgreSQL"><mxGraphModel dx="744" dy="524" grid="1" gridSize="10" guides="1" tooltips="1" connect="1" arrows="1" fold="1" page="1" pageScale="1" pageWidth="850" pageHeight="1100" math="0" shadow="0"><root><mxCell id="05p3vTzFS2uBdkn_8n3d-0"/><mxCell id="05p3vTzFS2uBdkn_8n3d-1" parent="05p3vTzFS2uBdkn_8n3d-0"/></root></mxGraphModel></diagram><diagram id="gY7FSl0r-D3geit7laie" name="Redis"><mxGraphModel dx="998" dy="524" grid="1" gridSize="10" guides="1" tooltips="1" connect="1" arrows="1" fold="1" page="1" pageScale="1" pageWidth="850" pageHeight="1100" math="0" shadow="0"><root><mxCell id="ivVuLqqEB4y7jYGilH0K-0"/><mxCell id="ivVuLqqEB4y7jYGilH0K-1" parent="ivVuLqqEB4y7jYGilH0K-0"/><mxCell id="BfeSKOMvs_zmudu9p5e3-13" value="Auth" style="swimlane;fontStyle=0;childLayout=stackLayout;horizontal=1;startSize=26;horizontalStack=0;resizeParent=1;resizeParentMax=0;resizeLast=0;collapsible=1;marginBottom=0;align=center;fontSize=14;" vertex="1" parent="ivVuLqqEB4y7jYGilH0K-1"><mxGeometry x="40" y="40" width="160" height="56" as="geometry"/></mxCell><mxCell id="BfeSKOMvs_zmudu9p5e3-14" value="refresh_token: string" style="text;strokeColor=none;fillColor=none;spacingLeft=4;spacingRight=4;overflow=hidden;rotatable=0;points=[[0,0.5],[1,0.5]];portConstraint=eastwest;fontSize=12;" vertex="1" parent="BfeSKOMvs_zmudu9p5e3-13"><mxGeometry y="26" width="160" height="30" as="geometry"/></mxCell></root></mxGraphModel></diagram></mxfile>